<svg width="1440" height="400" viewBox="0 0 1440 400" fill="none" xmlns="http://www.w3.org/2000/svg">
<g filter="url(#filter0_n_55_865)">
<rect x="-2.99585" y="20.1167" width="1445.99" height="360.494" fill="#FFEDF1"/>
<path d="M1423.92 0.0333252C1434.46 0.0333303 1443 8.57534 1443 19.1124C1443 29.6495 1434.46 38.1915 1423.92 38.1915C1413.38 38.1915 1404.84 29.6495 1404.84 19.1124C1404.84 8.57534 1413.38 0.0333252 1423.92 0.0333252Z" fill="#FFEDF1"/>
<path d="M1347.6 0.0333252C1358.14 0.0333303 1366.68 8.57534 1366.68 19.1124C1366.68 29.6495 1358.14 38.1915 1347.6 38.1915C1337.07 38.1915 1328.52 29.6495 1328.52 19.1124C1328.52 8.57534 1337.07 0.0333252 1347.6 0.0333252Z" fill="#FFEDF1"/>
<path d="M1385.76 0.0333252C1396.3 0.0333303 1404.84 8.57534 1404.84 19.1124C1404.84 29.6495 1396.3 38.1915 1385.76 38.1915C1375.22 38.1915 1366.68 29.6495 1366.68 19.1124C1366.68 8.57534 1375.22 0.0333252 1385.76 0.0333252Z" fill="#FFEDF1"/>
<path d="M1309.44 0.0333252C1319.98 0.0333303 1328.52 8.57534 1328.52 19.1124C1328.52 29.6495 1319.98 38.1915 1309.44 38.1915C1298.91 38.1915 1290.37 29.6495 1290.37 19.1124C1290.37 8.57534 1298.91 0.0333252 1309.44 0.0333252Z" fill="#FFEDF1"/>
<path d="M1233.13 0.0333252C1243.67 0.0333303 1252.21 8.57534 1252.21 19.1124C1252.21 29.6495 1243.67 38.1915 1233.13 38.1915C1222.59 38.1915 1214.05 29.6495 1214.05 19.1124C1214.05 8.57534 1222.59 0.0333252 1233.13 0.0333252Z" fill="#FFEDF1"/>
<path d="M1271.29 0.0333252C1281.82 0.0333303 1290.37 8.57534 1290.37 19.1124C1290.37 29.6495 1281.82 38.1915 1271.29 38.1915C1260.75 38.1915 1252.21 29.6495 1252.21 19.1124C1252.21 8.57534 1260.75 0.0333252 1271.29 0.0333252Z" fill="#FFEDF1"/>
<path d="M1194.97 1.0376C1205.51 1.0376 1214.05 9.57961 1214.05 20.1167C1214.05 30.6538 1205.51 39.1958 1194.97 39.1958C1184.43 39.1958 1175.89 30.6538 1175.89 20.1167C1175.89 9.57961 1184.43 1.0376 1194.97 1.0376Z" fill="#FFEDF1"/>
<path d="M1118.65 1.0376C1129.19 1.0376 1137.73 9.57961 1137.73 20.1167C1137.73 30.6538 1129.19 39.1958 1118.65 39.1958C1108.12 39.1958 1099.57 30.6538 1099.57 20.1167C1099.57 9.57962 1108.12 1.03761 1118.65 1.0376Z" fill="#FFEDF1"/>
<path d="M1156.81 1.0376C1167.35 1.0376 1175.89 9.57961 1175.89 20.1167C1175.89 30.6538 1167.35 39.1958 1156.81 39.1958C1146.28 39.1958 1137.73 30.6538 1137.73 20.1167C1137.73 9.57961 1146.28 1.0376 1156.81 1.0376Z" fill="#FFEDF1"/>
<path d="M1080.5 1.0376C1091.03 1.0376 1099.57 9.57961 1099.57 20.1167C1099.57 30.6538 1091.03 39.1958 1080.5 39.1958C1069.96 39.1958 1061.42 30.6538 1061.42 20.1167C1061.42 9.57961 1069.96 1.0376 1080.5 1.0376Z" fill="#FFEDF1"/>
<path d="M1004.18 1.0376C1014.72 1.0376 1023.26 9.57961 1023.26 20.1167C1023.26 30.6538 1014.72 39.1958 1004.18 39.1958C993.642 39.1958 985.1 30.6538 985.1 20.1167C985.1 9.57961 993.642 1.0376 1004.18 1.0376Z" fill="#FFEDF1"/>
<path d="M1042.34 1.0376C1052.87 1.0376 1061.42 9.57961 1061.42 20.1167C1061.42 30.6538 1052.87 39.1958 1042.34 39.1958C1031.8 39.1958 1023.26 30.6538 1023.26 20.1167C1023.26 9.57961 1031.8 1.0376 1042.34 1.0376Z" fill="#FFEDF1"/>
<path d="M967.025 0.0333252C977.563 0.0333303 986.105 8.57534 986.105 19.1124C986.105 29.6495 977.563 38.1915 967.025 38.1915C956.488 38.1915 947.946 29.6495 947.946 19.1124C947.946 8.57534 956.488 0.0333252 967.025 0.0333252Z" fill="#FFEDF1"/>
<path d="M890.709 0.0333252C901.246 0.0333303 909.788 8.57534 909.788 19.1124C909.788 29.6495 901.246 38.1915 890.709 38.1915C880.172 38.1915 871.63 29.6495 871.63 19.1124C871.63 8.57534 880.172 0.0333252 890.709 0.0333252Z" fill="#FFEDF1"/>
<path d="M928.867 0.0333252C939.404 0.0333303 947.946 8.57534 947.946 19.1124C947.946 29.6495 939.404 38.1915 928.867 38.1915C918.33 38.1915 909.788 29.6495 909.788 19.1124C909.788 8.57534 918.33 0.0333252 928.867 0.0333252Z" fill="#FFEDF1"/>
<path d="M852.551 0.0333252C863.088 0.0333303 871.63 8.57534 871.63 19.1124C871.63 29.6495 863.088 38.1915 852.551 38.1915C842.014 38.1915 833.472 29.6495 833.472 19.1124C833.472 8.57534 842.014 0.0333252 852.551 0.0333252Z" fill="#FFEDF1"/>
<path d="M776.234 0.0333252C786.772 0.0333303 795.314 8.57534 795.314 19.1124C795.314 29.6495 786.772 38.1915 776.234 38.1915C765.697 38.1915 757.155 29.6495 757.155 19.1124C757.155 8.57534 765.697 0.0333252 776.234 0.0333252Z" fill="#FFEDF1"/>
<path d="M814.393 0.0333252C824.93 0.0333303 833.472 8.57534 833.472 19.1124C833.472 29.6495 824.93 38.1915 814.393 38.1915C803.856 38.1915 795.314 29.6495 795.314 19.1124C795.314 8.57534 803.856 0.0333252 814.393 0.0333252Z" fill="#FFEDF1"/>
<path d="M738.076 1.0376C748.613 1.0376 757.155 9.57961 757.155 20.1167C757.155 30.6538 748.613 39.1958 738.076 39.1958C727.539 39.1958 718.997 30.6538 718.997 20.1167C718.997 9.57961 727.539 1.0376 738.076 1.0376Z" fill="#FFEDF1"/>
<path d="M661.76 1.0376C672.297 1.0376 680.839 9.57961 680.839 20.1167C680.839 30.6538 672.297 39.1958 661.76 39.1958C651.223 39.1958 642.681 30.6538 642.681 20.1167C642.681 9.57961 651.223 1.0376 661.76 1.0376Z" fill="#FFEDF1"/>
<path d="M699.918 1.0376C710.455 1.0376 718.997 9.57961 718.997 20.1167C718.997 30.6538 710.455 39.1958 699.918 39.1958C689.381 39.1958 680.839 30.6538 680.839 20.1167C680.839 9.57961 689.381 1.0376 699.918 1.0376Z" fill="#FFEDF1"/>
<path d="M623.602 1.0376C634.139 1.0376 642.681 9.57961 642.681 20.1167C642.681 30.6538 634.139 39.1958 623.602 39.1958C613.065 39.1958 604.523 30.6538 604.523 20.1167C604.523 9.57961 613.065 1.0376 623.602 1.0376Z" fill="#FFEDF1"/>
<path d="M547.285 1.0376C557.822 1.0376 566.364 9.57961 566.364 20.1167C566.364 30.6538 557.822 39.1958 547.285 39.1958C536.748 39.1958 528.206 30.6538 528.206 20.1167C528.206 9.57961 536.748 1.0376 547.285 1.0376Z" fill="#FFEDF1"/>
<path d="M585.444 1.0376C595.981 1.0376 604.523 9.57961 604.523 20.1167C604.523 30.6538 595.981 39.1958 585.444 39.1958C574.907 39.1958 566.365 30.6538 566.365 20.1167C566.365 9.57961 574.907 1.0376 585.444 1.0376Z" fill="#FFEDF1"/>
<path d="M509.127 0.0333252C519.664 0.0333303 528.206 8.57534 528.206 19.1124C528.206 29.6495 519.664 38.1915 509.127 38.1915C498.59 38.1915 490.048 29.6495 490.048 19.1124C490.048 8.57534 498.59 0.0333252 509.127 0.0333252Z" fill="#FFEDF1"/>
<path d="M432.811 0.0333252C443.348 0.0333303 451.89 8.57534 451.89 19.1124C451.89 29.6495 443.348 38.1915 432.811 38.1915C422.274 38.1915 413.732 29.6495 413.732 19.1124C413.732 8.57534 422.274 0.0333252 432.811 0.0333252Z" fill="#FFEDF1"/>
<path d="M470.969 0.0333252C481.506 0.0333303 490.048 8.57534 490.048 19.1124C490.048 29.6495 481.506 38.1915 470.969 38.1915C460.432 38.1915 451.89 29.6495 451.89 19.1124C451.89 8.57534 460.432 0.0333252 470.969 0.0333252Z" fill="#FFEDF1"/>
<path d="M394.653 0.0333252C405.19 0.0333303 413.732 8.57534 413.732 19.1124C413.732 29.6495 405.19 38.1915 394.653 38.1915C384.115 38.1915 375.573 29.6495 375.573 19.1124C375.573 8.57534 384.115 0.0333252 394.653 0.0333252Z" fill="#FFEDF1"/>
<path d="M318.336 0.0333252C328.873 0.0333303 337.415 8.57534 337.415 19.1124C337.415 29.6495 328.873 38.1915 318.336 38.1915C307.799 38.1915 299.257 29.6495 299.257 19.1124C299.257 8.57534 307.799 0.0333252 318.336 0.0333252Z" fill="#FFEDF1"/>
<path d="M356.494 0.0333252C367.031 0.0333303 375.573 8.57534 375.573 19.1124C375.573 29.6495 367.031 38.1915 356.494 38.1915C345.957 38.1915 337.415 29.6495 337.415 19.1124C337.415 8.57534 345.957 0.0333252 356.494 0.0333252Z" fill="#FFEDF1"/>
<path d="M280.178 1.0376C290.715 1.0376 299.257 9.57961 299.257 20.1167C299.257 30.6538 290.715 39.1958 280.178 39.1958C269.641 39.1958 261.099 30.6538 261.099 20.1167C261.099 9.57961 269.641 1.0376 280.178 1.0376Z" fill="#FFEDF1"/>
<path d="M203.862 1.0376C214.399 1.0376 222.941 9.57961 222.941 20.1167C222.941 30.6538 214.399 39.1958 203.862 39.1958C193.325 39.1958 184.783 30.6538 184.783 20.1167C184.783 9.57961 193.325 1.0376 203.862 1.0376Z" fill="#FFEDF1"/>
<path d="M242.02 1.0376C252.557 1.0376 261.099 9.57961 261.099 20.1167C261.099 30.6538 252.557 39.1958 242.02 39.1958C231.483 39.1958 222.941 30.6538 222.941 20.1167C222.941 9.57961 231.483 1.0376 242.02 1.0376Z" fill="#FFEDF1"/>
<path d="M165.703 1.0376C176.241 1.0376 184.783 9.57961 184.783 20.1167C184.783 30.6538 176.241 39.1958 165.703 39.1958C155.166 39.1958 146.624 30.6538 146.624 20.1167C146.624 9.57961 155.166 1.0376 165.703 1.0376Z" fill="#FFEDF1"/>
<path d="M89.3872 1.0376C99.9243 1.0376 108.466 9.57961 108.466 20.1167C108.466 30.6538 99.9243 39.1958 89.3872 39.1958C78.8501 39.1958 70.3081 30.6538 70.3081 20.1167C70.3081 9.57961 78.8501 1.0376 89.3872 1.0376Z" fill="#FFEDF1"/>
<path d="M127.545 1.0376C138.082 1.0376 146.624 9.57961 146.624 20.1167C146.624 30.6538 138.082 39.1958 127.545 39.1958C117.008 39.1958 108.466 30.6538 108.466 20.1167C108.466 9.57961 117.008 1.0376 127.545 1.0376Z" fill="#FFEDF1"/>
<path d="M15.0791 0.0333252C25.6162 0.0333303 34.1582 8.57534 34.1582 19.1124C34.1582 29.6495 25.6162 38.1915 15.0791 38.1915C4.54201 38.1915 -3.99999 29.6495 -4 19.1124C-4 8.57534 4.54201 0.0333252 15.0791 0.0333252Z" fill="#FFEDF1"/>
<path d="M53.2373 0.0333252C63.7744 0.0333303 72.3164 8.57534 72.3164 19.1124C72.3164 29.6495 63.7744 38.1915 53.2373 38.1915C42.7002 38.1915 34.1582 29.6495 34.1582 19.1124C34.1582 8.57534 42.7002 0.0333252 53.2373 0.0333252Z" fill="#FFEDF1"/>
<path d="M1423.92 0.0333252C1434.46 0.0333303 1443 8.57534 1443 19.1124C1443 29.6495 1434.46 38.1915 1423.92 38.1915C1413.38 38.1915 1404.84 29.6495 1404.84 19.1124C1404.84 8.57534 1413.38 0.0333252 1423.92 0.0333252Z" fill="#FFEDF1"/>
<path d="M1347.6 0.0333252C1358.14 0.0333303 1366.68 8.57534 1366.68 19.1124C1366.68 29.6495 1358.14 38.1915 1347.6 38.1915C1337.07 38.1915 1328.52 29.6495 1328.52 19.1124C1328.52 8.57534 1337.07 0.0333252 1347.6 0.0333252Z" fill="#FFEDF1"/>
<path d="M1385.76 0.0333252C1396.3 0.0333303 1404.84 8.57534 1404.84 19.1124C1404.84 29.6495 1396.3 38.1915 1385.76 38.1915C1375.22 38.1915 1366.68 29.6495 1366.68 19.1124C1366.68 8.57534 1375.22 0.0333252 1385.76 0.0333252Z" fill="#FFEDF1"/>
<path d="M1309.44 0.0333252C1319.98 0.0333303 1328.52 8.57534 1328.52 19.1124C1328.52 29.6495 1319.98 38.1915 1309.44 38.1915C1298.91 38.1915 1290.37 29.6495 1290.37 19.1124C1290.37 8.57534 1298.91 0.0333252 1309.44 0.0333252Z" fill="#FFEDF1"/>
<path d="M1233.13 0.0333252C1243.67 0.0333303 1252.21 8.57534 1252.21 19.1124C1252.21 29.6495 1243.67 38.1915 1233.13 38.1915C1222.59 38.1915 1214.05 29.6495 1214.05 19.1124C1214.05 8.57534 1222.59 0.0333252 1233.13 0.0333252Z" fill="#FFEDF1"/>
<path d="M1271.29 0.0333252C1281.82 0.0333303 1290.37 8.57534 1290.37 19.1124C1290.37 29.6495 1281.82 38.1915 1271.29 38.1915C1260.75 38.1915 1252.21 29.6495 1252.21 19.1124C1252.21 8.57534 1260.75 0.0333252 1271.29 0.0333252Z" fill="#FFEDF1"/>
<path d="M1194.97 1.0376C1205.51 1.0376 1214.05 9.57961 1214.05 20.1167C1214.05 30.6538 1205.51 39.1958 1194.97 39.1958C1184.43 39.1958 1175.89 30.6538 1175.89 20.1167C1175.89 9.57961 1184.43 1.0376 1194.97 1.0376Z" fill="#FFEDF1"/>
<path d="M1118.65 1.0376C1129.19 1.0376 1137.73 9.57961 1137.73 20.1167C1137.73 30.6538 1129.19 39.1958 1118.65 39.1958C1108.12 39.1958 1099.57 30.6538 1099.57 20.1167C1099.57 9.57962 1108.12 1.03761 1118.65 1.0376Z" fill="#FFEDF1"/>
<path d="M1156.81 1.0376C1167.35 1.0376 1175.89 9.57961 1175.89 20.1167C1175.89 30.6538 1167.35 39.1958 1156.81 39.1958C1146.28 39.1958 1137.73 30.6538 1137.73 20.1167C1137.73 9.57961 1146.28 1.0376 1156.81 1.0376Z" fill="#FFEDF1"/>
<path d="M1080.5 1.0376C1091.03 1.0376 1099.57 9.57961 1099.57 20.1167C1099.57 30.6538 1091.03 39.1958 1080.5 39.1958C1069.96 39.1958 1061.42 30.6538 1061.42 20.1167C1061.42 9.57961 1069.96 1.0376 1080.5 1.0376Z" fill="#FFEDF1"/>
<path d="M1004.18 1.0376C1014.72 1.0376 1023.26 9.57961 1023.26 20.1167C1023.26 30.6538 1014.72 39.1958 1004.18 39.1958C993.642 39.1958 985.1 30.6538 985.1 20.1167C985.1 9.57961 993.642 1.0376 1004.18 1.0376Z" fill="#FFEDF1"/>
<path d="M1042.34 1.0376C1052.87 1.0376 1061.42 9.57961 1061.42 20.1167C1061.42 30.6538 1052.87 39.1958 1042.34 39.1958C1031.8 39.1958 1023.26 30.6538 1023.26 20.1167C1023.26 9.57961 1031.8 1.0376 1042.34 1.0376Z" fill="#FFEDF1"/>
<path d="M1423.92 399.69C1434.46 399.69 1443 391.148 1443 380.611C1443 370.074 1434.46 361.532 1423.92 361.532C1413.38 361.532 1404.84 370.074 1404.84 380.611C1404.84 391.148 1413.38 399.69 1423.92 399.69Z" fill="#FFEDF1"/>
<path d="M1347.6 399.69C1358.14 399.69 1366.68 391.148 1366.68 380.611C1366.68 370.074 1358.14 361.532 1347.6 361.532C1337.07 361.532 1328.52 370.074 1328.52 380.611C1328.52 391.148 1337.07 399.69 1347.6 399.69Z" fill="#FFEDF1"/>
<path d="M1385.76 399.69C1396.3 399.69 1404.84 391.148 1404.84 380.611C1404.84 370.074 1396.3 361.532 1385.76 361.532C1375.22 361.532 1366.68 370.074 1366.68 380.611C1366.68 391.148 1375.22 399.69 1385.76 399.69Z" fill="#FFEDF1"/>
<path d="M1309.44 399.69C1319.98 399.69 1328.52 391.148 1328.52 380.611C1328.52 370.074 1319.98 361.532 1309.44 361.532C1298.91 361.532 1290.37 370.074 1290.37 380.611C1290.37 391.148 1298.91 399.69 1309.44 399.69Z" fill="#FFEDF1"/>
<path d="M1233.13 399.69C1243.67 399.69 1252.21 391.148 1252.21 380.611C1252.21 370.074 1243.67 361.532 1233.13 361.532C1222.59 361.532 1214.05 370.074 1214.05 380.611C1214.05 391.148 1222.59 399.69 1233.13 399.69Z" fill="#FFEDF1"/>
<path d="M1271.29 399.69C1281.82 399.69 1290.37 391.148 1290.37 380.611C1290.37 370.074 1281.82 361.532 1271.29 361.532C1260.75 361.532 1252.21 370.074 1252.21 380.611C1252.21 391.148 1260.75 399.69 1271.29 399.69Z" fill="#FFEDF1"/>
<path d="M1194.97 398.686C1205.51 398.686 1214.05 390.144 1214.05 379.607C1214.05 369.07 1205.51 360.528 1194.97 360.528C1184.43 360.528 1175.89 369.07 1175.89 379.607C1175.89 390.144 1184.43 398.686 1194.97 398.686Z" fill="#FFEDF1"/>
<path d="M1118.65 398.686C1129.19 398.686 1137.73 390.144 1137.73 379.607C1137.73 369.07 1129.19 360.528 1118.65 360.528C1108.12 360.528 1099.57 369.07 1099.57 379.607C1099.57 390.144 1108.12 398.686 1118.65 398.686Z" fill="#FFEDF1"/>
<path d="M1156.81 398.686C1167.35 398.686 1175.89 390.144 1175.89 379.607C1175.89 369.07 1167.35 360.528 1156.81 360.528C1146.28 360.528 1137.73 369.07 1137.73 379.607C1137.73 390.144 1146.28 398.686 1156.81 398.686Z" fill="#FFEDF1"/>
<path d="M1080.5 398.686C1091.03 398.686 1099.57 390.144 1099.57 379.607C1099.57 369.07 1091.03 360.528 1080.5 360.528C1069.96 360.528 1061.42 369.07 1061.42 379.607C1061.42 390.144 1069.96 398.686 1080.5 398.686Z" fill="#FFEDF1"/>
<path d="M1004.18 398.686C1014.72 398.686 1023.26 390.144 1023.26 379.607C1023.26 369.07 1014.72 360.528 1004.18 360.528C993.642 360.528 985.1 369.07 985.1 379.607C985.1 390.144 993.642 398.686 1004.18 398.686Z" fill="#FFEDF1"/>
<path d="M1042.34 398.686C1052.87 398.686 1061.42 390.144 1061.42 379.607C1061.42 369.07 1052.87 360.528 1042.34 360.528C1031.8 360.528 1023.26 369.07 1023.26 379.607C1023.26 390.144 1031.8 398.686 1042.34 398.686Z" fill="#FFEDF1"/>
<path d="M967.025 399.69C977.563 399.69 986.105 391.148 986.105 380.611C986.105 370.074 977.563 361.532 967.025 361.532C956.488 361.532 947.946 370.074 947.946 380.611C947.946 391.148 956.488 399.69 967.025 399.69Z" fill="#FFEDF1"/>
<path d="M890.709 399.69C901.246 399.69 909.788 391.148 909.788 380.611C909.788 370.074 901.246 361.532 890.709 361.532C880.172 361.532 871.63 370.074 871.63 380.611C871.63 391.148 880.172 399.69 890.709 399.69Z" fill="#FFEDF1"/>
<path d="M928.867 399.69C939.404 399.69 947.946 391.148 947.946 380.611C947.946 370.074 939.404 361.532 928.867 361.532C918.33 361.532 909.788 370.074 909.788 380.611C909.788 391.148 918.33 399.69 928.867 399.69Z" fill="#FFEDF1"/>
<path d="M852.551 399.69C863.088 399.69 871.63 391.148 871.63 380.611C871.63 370.074 863.088 361.532 852.551 361.532C842.014 361.532 833.472 370.074 833.472 380.611C833.472 391.148 842.014 399.69 852.551 399.69Z" fill="#FFEDF1"/>
<path d="M776.234 399.69C786.772 399.69 795.314 391.148 795.314 380.611C795.314 370.074 786.772 361.532 776.234 361.532C765.697 361.532 757.155 370.074 757.155 380.611C757.155 391.148 765.697 399.69 776.234 399.69Z" fill="#FFEDF1"/>
<path d="M814.393 399.69C824.93 399.69 833.472 391.148 833.472 380.611C833.472 370.074 824.93 361.532 814.393 361.532C803.856 361.532 795.314 370.074 795.314 380.611C795.314 391.148 803.856 399.69 814.393 399.69Z" fill="#FFEDF1"/>
<path d="M738.076 398.686C748.613 398.686 757.155 390.144 757.155 379.607C757.155 369.07 748.613 360.528 738.076 360.528C727.539 360.528 718.997 369.07 718.997 379.607C718.997 390.144 727.539 398.686 738.076 398.686Z" fill="#FFEDF1"/>
<path d="M661.76 398.686C672.297 398.686 680.839 390.144 680.839 379.607C680.839 369.07 672.297 360.528 661.76 360.528C651.223 360.528 642.681 369.07 642.681 379.607C642.681 390.144 651.223 398.686 661.76 398.686Z" fill="#FFEDF1"/>
<path d="M699.918 398.686C710.455 398.686 718.997 390.144 718.997 379.607C718.997 369.07 710.455 360.528 699.918 360.528C689.381 360.528 680.839 369.07 680.839 379.607C680.839 390.144 689.381 398.686 699.918 398.686Z" fill="#FFEDF1"/>
<path d="M623.602 398.686C634.139 398.686 642.681 390.144 642.681 379.607C642.681 369.07 634.139 360.528 623.602 360.528C613.065 360.528 604.523 369.07 604.523 379.607C604.523 390.144 613.065 398.686 623.602 398.686Z" fill="#FFEDF1"/>
<path d="M547.285 398.686C557.822 398.686 566.364 390.144 566.364 379.607C566.364 369.07 557.822 360.528 547.285 360.528C536.748 360.528 528.206 369.07 528.206 379.607C528.206 390.144 536.748 398.686 547.285 398.686Z" fill="#FFEDF1"/>
<path d="M585.444 398.686C595.981 398.686 604.523 390.144 604.523 379.607C604.523 369.07 595.981 360.528 585.444 360.528C574.907 360.528 566.365 369.07 566.365 379.607C566.365 390.144 574.907 398.686 585.444 398.686Z" fill="#FFEDF1"/>
<path d="M509.127 399.69C519.664 399.69 528.206 391.148 528.206 380.611C528.206 370.074 519.664 361.532 509.127 361.532C498.59 361.532 490.048 370.074 490.048 380.611C490.048 391.148 498.59 399.69 509.127 399.69Z" fill="#FFEDF1"/>
<path d="M432.811 399.69C443.348 399.69 451.89 391.148 451.89 380.611C451.89 370.074 443.348 361.532 432.811 361.532C422.274 361.532 413.732 370.074 413.732 380.611C413.732 391.148 422.274 399.69 432.811 399.69Z" fill="#FFEDF1"/>
<path d="M470.969 399.69C481.506 399.69 490.048 391.148 490.048 380.611C490.048 370.074 481.506 361.532 470.969 361.532C460.432 361.532 451.89 370.074 451.89 380.611C451.89 391.148 460.432 399.69 470.969 399.69Z" fill="#FFEDF1"/>
<path d="M394.653 399.69C405.19 399.69 413.732 391.148 413.732 380.611C413.732 370.074 405.19 361.532 394.653 361.532C384.115 361.532 375.573 370.074 375.573 380.611C375.573 391.148 384.115 399.69 394.653 399.69Z" fill="#FFEDF1"/>
<path d="M318.336 399.69C328.873 399.69 337.415 391.148 337.415 380.611C337.415 370.074 328.873 361.532 318.336 361.532C307.799 361.532 299.257 370.074 299.257 380.611C299.257 391.148 307.799 399.69 318.336 399.69Z" fill="#FFEDF1"/>
<path d="M356.494 399.69C367.031 399.69 375.573 391.148 375.573 380.611C375.573 370.074 367.031 361.532 356.494 361.532C345.957 361.532 337.415 370.074 337.415 380.611C337.415 391.148 345.957 399.69 356.494 399.69Z" fill="#FFEDF1"/>
<path d="M280.178 398.686C290.715 398.686 299.257 390.144 299.257 379.607C299.257 369.07 290.715 360.528 280.178 360.528C269.641 360.528 261.099 369.07 261.099 379.607C261.099 390.144 269.641 398.686 280.178 398.686Z" fill="#FFEDF1"/>
<path d="M203.862 398.686C214.399 398.686 222.941 390.144 222.941 379.607C222.941 369.07 214.399 360.528 203.862 360.528C193.325 360.528 184.783 369.07 184.783 379.607C184.783 390.144 193.325 398.686 203.862 398.686Z" fill="#FFEDF1"/>
<path d="M242.02 398.686C252.557 398.686 261.099 390.144 261.099 379.607C261.099 369.07 252.557 360.528 242.02 360.528C231.483 360.528 222.941 369.07 222.941 379.607C222.941 390.144 231.483 398.686 242.02 398.686Z" fill="#FFEDF1"/>
<path d="M165.703 398.686C176.241 398.686 184.783 390.144 184.783 379.607C184.783 369.07 176.241 360.528 165.703 360.528C155.166 360.528 146.624 369.07 146.624 379.607C146.624 390.144 155.166 398.686 165.703 398.686Z" fill="#FFEDF1"/>
<path d="M89.3872 398.686C99.9243 398.686 108.466 390.144 108.466 379.607C108.466 369.07 99.9243 360.528 89.3872 360.528C78.8501 360.528 70.3081 369.07 70.3081 379.607C70.3081 390.144 78.8501 398.686 89.3872 398.686Z" fill="#FFEDF1"/>
<path d="M127.545 398.686C138.082 398.686 146.624 390.144 146.624 379.607C146.624 369.07 138.082 360.528 127.545 360.528C117.008 360.528 108.466 369.07 108.466 379.607C108.466 390.144 117.008 398.686 127.545 398.686Z" fill="#FFEDF1"/>
<path d="M15.0791 399.69C25.6162 399.69 34.1582 391.148 34.1582 380.611C34.1582 370.074 25.6162 361.532 15.0791 361.532C4.54201 361.532 -3.99999 370.074 -4 380.611C-4 391.148 4.54201 399.69 15.0791 399.69Z" fill="#FFEDF1"/>
<path d="M53.2373 399.69C63.7744 399.69 72.3164 391.148 72.3164 380.611C72.3164 370.074 63.7744 361.532 53.2373 361.532C42.7002 361.532 34.1582 370.074 34.1582 380.611C34.1582 391.148 42.7002 399.69 53.2373 399.69Z" fill="#FFEDF1"/>
<path d="M1423.92 399.69C1434.46 399.69 1443 391.148 1443 380.611C1443 370.074 1434.46 361.532 1423.92 361.532C1413.38 361.532 1404.84 370.074 1404.84 380.611C1404.84 391.148 1413.38 399.69 1423.92 399.69Z" fill="#FFEDF1"/>
<path d="M1347.6 399.69C1358.14 399.69 1366.68 391.148 1366.68 380.611C1366.68 370.074 1358.14 361.532 1347.6 361.532C1337.07 361.532 1328.52 370.074 1328.52 380.611C1328.52 391.148 1337.07 399.69 1347.6 399.69Z" fill="#FFEDF1"/>
<path d="M1385.76 399.69C1396.3 399.69 1404.84 391.148 1404.84 380.611C1404.84 370.074 1396.3 361.532 1385.76 361.532C1375.22 361.532 1366.68 370.074 1366.68 380.611C1366.68 391.148 1375.22 399.69 1385.76 399.69Z" fill="#FFEDF1"/>
<path d="M1309.44 399.69C1319.98 399.69 1328.52 391.148 1328.52 380.611C1328.52 370.074 1319.98 361.532 1309.44 361.532C1298.91 361.532 1290.37 370.074 1290.37 380.611C1290.37 391.148 1298.91 399.69 1309.44 399.69Z" fill="#FFEDF1"/>
<path d="M1233.13 399.69C1243.67 399.69 1252.21 391.148 1252.21 380.611C1252.21 370.074 1243.67 361.532 1233.13 361.532C1222.59 361.532 1214.05 370.074 1214.05 380.611C1214.05 391.148 1222.59 399.69 1233.13 399.69Z" fill="#FFEDF1"/>
<path d="M1271.29 399.69C1281.82 399.69 1290.37 391.148 1290.37 380.611C1290.37 370.074 1281.82 361.532 1271.29 361.532C1260.75 361.532 1252.21 370.074 1252.21 380.611C1252.21 391.148 1260.75 399.69 1271.29 399.69Z" fill="#FFEDF1"/>
<path d="M1194.97 398.686C1205.51 398.686 1214.05 390.144 1214.05 379.607C1214.05 369.07 1205.51 360.528 1194.97 360.528C1184.43 360.528 1175.89 369.07 1175.89 379.607C1175.89 390.144 1184.43 398.686 1194.97 398.686Z" fill="#FFEDF1"/>
<path d="M1118.65 398.686C1129.19 398.686 1137.73 390.144 1137.73 379.607C1137.73 369.07 1129.19 360.528 1118.65 360.528C1108.12 360.528 1099.57 369.07 1099.57 379.607C1099.57 390.144 1108.12 398.686 1118.65 398.686Z" fill="#FFEDF1"/>
<path d="M1156.81 398.686C1167.35 398.686 1175.89 390.144 1175.89 379.607C1175.89 369.07 1167.35 360.528 1156.81 360.528C1146.28 360.528 1137.73 369.07 1137.73 379.607C1137.73 390.144 1146.28 398.686 1156.81 398.686Z" fill="#FFEDF1"/>
<path d="M1080.5 398.686C1091.03 398.686 1099.57 390.144 1099.57 379.607C1099.57 369.07 1091.03 360.528 1080.5 360.528C1069.96 360.528 1061.42 369.07 1061.42 379.607C1061.42 390.144 1069.96 398.686 1080.5 398.686Z" fill="#FFEDF1"/>
<path d="M1004.18 398.686C1014.72 398.686 1023.26 390.144 1023.26 379.607C1023.26 369.07 1014.72 360.528 1004.18 360.528C993.642 360.528 985.1 369.07 985.1 379.607C985.1 390.144 993.642 398.686 1004.18 398.686Z" fill="#FFEDF1"/>
<path d="M1042.34 398.686C1052.87 398.686 1061.42 390.144 1061.42 379.607C1061.42 369.07 1052.87 360.528 1042.34 360.528C1031.8 360.528 1023.26 369.07 1023.26 379.607C1023.26 390.144 1031.8 398.686 1042.34 398.686Z" fill="#FFEDF1"/>
</g>
<defs>
<filter id="filter0_n_55_865" x="-4" y="0.0333252" width="1447" height="399.657" filterUnits="userSpaceOnUse" color-interpolation-filters="sRGB">
<feFlood flood-opacity="0" result="BackgroundImageFix"/>
<feBlend mode="normal" in="SourceGraphic" in2="BackgroundImageFix" result="shape"/>
<feTurbulence type="fractalNoise" baseFrequency="2 2" stitchTiles="stitch" numOctaves="3" result="noise" seed="9633" />
<feColorMatrix in="noise" type="luminanceToAlpha" result="alphaNoise" />
<feComponentTransfer in="alphaNoise" result="coloredNoise1">
<feFuncA type="discrete" tableValues="1 1 1 1 1 1 1 1 1 1 1 1 1 1 1 1 1 1 1 1 1 1 1 1 1 1 1 1 1 1 1 1 1 1 1 1 1 1 1 1 1 1 1 1 1 1 1 1 1 1 1 0 0 0 0 0 0 0 0 0 0 0 0 0 0 0 0 0 0 0 0 0 0 0 0 0 0 0 0 0 0 0 0 0 0 0 0 0 0 0 0 0 0 0 0 0 0 0 0 0 "/>
</feComponentTransfer>
<feComposite operator="in" in2="shape" in="coloredNoise1" result="noise1Clipped" />
<feFlood flood-color="rgba(255, 168, 187, 0.49)" result="color1Flood" />
<feComposite operator="in" in2="noise1Clipped" in="color1Flood" result="color1" />
<feMerge result="effect1_noise_55_865">
<feMergeNode in="shape" />
<feMergeNode in="color1" />
</feMerge>
</filter>
</defs>
</svg>
