<svg width="60" height="32" viewBox="0 0 60 32" fill="none" xmlns="http://www.w3.org/2000/svg">
<path d="M30 16.3281L26.378 15C23.4805 18.0812 19 29.6094 19 29.6094L23.4268 28.2812C24.4106 31.026 26.378 32 26.378 32C26.378 32 28.7927 20.0469 30 16.3281Z" fill="#FFA8BB"/>
<path d="M30 16.3281L33.622 15C36.5195 18.0812 41 29.6094 41 29.6094L36.5732 28.2812C35.5894 31.026 33.622 32 33.622 32C33.622 32 31.2073 20.0469 30 16.3281Z" fill="#FFA8BB"/>
<path d="M37 11.5C37 11.5 12.0777 28.4388 1.72806 21.201C-2.16008 18.4819 1.72806 14.4216 1.72807 10.9307C1.72807 7.43975 -2.16008 4.51812 1.72807 1.79903C12.0777 -5.43877 37 11.5 37 11.5Z" fill="#FFBAC9"/>
<path d="M23 11.5C23 11.5 47.9223 28.4388 58.2719 21.201C62.1601 18.4819 58.2719 14.4216 58.2719 10.9307C58.2719 7.43975 62.1601 4.51812 58.2719 1.79903C47.9223 -5.43877 23 11.5 23 11.5Z" fill="#FFBAC9"/>
<path d="M27 6.44444C27 5.6467 27.5373 5 28.2 5H31.8C32.4627 5 33 5.6467 33 6.44444V16.5556C33 17.3533 32.4627 18 31.8 18H28.2C27.5373 18 27 17.3533 27 16.5556V6.44444Z" fill="#FFA8BB"/>
</svg>
