<svg width="1439" height="59" viewBox="0 0 1439 59" fill="none" xmlns="http://www.w3.org/2000/svg">
<mask id="mask0_170_168" style="mask-type:alpha" maskUnits="userSpaceOnUse" x="-8" y="0" width="1447" height="59">
<rect x="-4" width="1443" height="39" fill="#FFF0FA"/>
<path d="M1419.92 58.1624C1430.46 58.1623 1439 49.6203 1439 39.0833C1439 28.5462 1430.46 20.0042 1419.92 20.0042C1409.38 20.0042 1400.84 28.5462 1400.84 39.0833C1400.84 49.6203 1409.38 58.1624 1419.92 58.1624Z" fill="#FFF0FA"/>
<path d="M1343.6 58.1624C1354.14 58.1623 1362.68 49.6203 1362.68 39.0833C1362.68 28.5462 1354.14 20.0042 1343.6 20.0042C1333.07 20.0042 1324.52 28.5462 1324.52 39.0833C1324.52 49.6203 1333.07 58.1624 1343.6 58.1624Z" fill="#FFF0FA"/>
<path d="M1381.76 58.1624C1392.3 58.1623 1400.84 49.6203 1400.84 39.0833C1400.84 28.5462 1392.3 20.0042 1381.76 20.0042C1371.22 20.0042 1362.68 28.5462 1362.68 39.0833C1362.68 49.6203 1371.22 58.1624 1381.76 58.1624Z" fill="#FFF0FA"/>
<path d="M1305.44 58.1624C1315.98 58.1623 1324.52 49.6203 1324.52 39.0833C1324.52 28.5462 1315.98 20.0042 1305.44 20.0042C1294.91 20.0042 1286.37 28.5462 1286.37 39.0833C1286.37 49.6203 1294.91 58.1624 1305.44 58.1624Z" fill="#FFF0FA"/>
<path d="M1229.13 58.1624C1239.67 58.1623 1248.21 49.6203 1248.21 39.0833C1248.21 28.5462 1239.67 20.0042 1229.13 20.0042C1218.59 20.0042 1210.05 28.5462 1210.05 39.0833C1210.05 49.6203 1218.59 58.1624 1229.13 58.1624Z" fill="#FFF0FA"/>
<path d="M1267.29 58.1624C1277.82 58.1623 1286.37 49.6203 1286.37 39.0833C1286.37 28.5462 1277.82 20.0042 1267.29 20.0042C1256.75 20.0042 1248.21 28.5462 1248.21 39.0833C1248.21 49.6203 1256.75 58.1624 1267.29 58.1624Z" fill="#FFF0FA"/>
<path d="M1190.97 57.1582C1201.51 57.1582 1210.05 48.6162 1210.05 38.0791C1210.05 27.542 1201.51 19 1190.97 19C1180.43 19 1171.89 27.542 1171.89 38.0791C1171.89 48.6162 1180.43 57.1582 1190.97 57.1582Z" fill="#FFF0FA"/>
<path d="M1114.65 57.1582C1125.19 57.1582 1133.73 48.6162 1133.73 38.0791C1133.73 27.542 1125.19 19 1114.65 19C1104.12 19 1095.57 27.542 1095.57 38.0791C1095.57 48.6162 1104.12 57.1582 1114.65 57.1582Z" fill="#FFF0FA"/>
<path d="M1152.81 57.1582C1163.35 57.1582 1171.89 48.6162 1171.89 38.0791C1171.89 27.542 1163.35 19 1152.81 19C1142.28 19 1133.73 27.542 1133.73 38.0791C1133.73 48.6162 1142.28 57.1582 1152.81 57.1582Z" fill="#FFF0FA"/>
<path d="M1076.5 57.1582C1087.03 57.1582 1095.57 48.6162 1095.57 38.0791C1095.57 27.542 1087.03 19 1076.5 19C1065.96 19 1057.42 27.542 1057.42 38.0791C1057.42 48.6162 1065.96 57.1582 1076.5 57.1582Z" fill="#FFF0FA"/>
<path d="M1000.18 57.1582C1010.72 57.1582 1019.26 48.6162 1019.26 38.0791C1019.26 27.542 1010.72 19 1000.18 19C989.642 19 981.1 27.542 981.1 38.0791C981.1 48.6162 989.642 57.1582 1000.18 57.1582Z" fill="#FFF0FA"/>
<path d="M1038.34 57.1582C1048.87 57.1582 1057.42 48.6162 1057.42 38.0791C1057.42 27.542 1048.87 19 1038.34 19C1027.8 19 1019.26 27.542 1019.26 38.0791C1019.26 48.6162 1027.8 57.1582 1038.34 57.1582Z" fill="#FFF0FA"/>
<path d="M963.025 58.1624C973.563 58.1623 982.105 49.6203 982.105 39.0833C982.105 28.5462 973.563 20.0042 963.025 20.0042C952.488 20.0042 943.946 28.5462 943.946 39.0833C943.946 49.6203 952.488 58.1624 963.025 58.1624Z" fill="#FFF0FA"/>
<path d="M886.709 58.1624C897.246 58.1623 905.788 49.6203 905.788 39.0833C905.788 28.5462 897.246 20.0042 886.709 20.0042C876.172 20.0042 867.63 28.5462 867.63 39.0833C867.63 49.6203 876.172 58.1624 886.709 58.1624Z" fill="#FFF0FA"/>
<path d="M924.867 58.1624C935.404 58.1623 943.946 49.6203 943.946 39.0833C943.946 28.5462 935.404 20.0042 924.867 20.0042C914.33 20.0042 905.788 28.5462 905.788 39.0833C905.788 49.6203 914.33 58.1624 924.867 58.1624Z" fill="#FFF0FA"/>
<path d="M848.551 58.1624C859.088 58.1623 867.63 49.6203 867.63 39.0833C867.63 28.5462 859.088 20.0042 848.551 20.0042C838.014 20.0042 829.472 28.5462 829.472 39.0833C829.472 49.6203 838.014 58.1624 848.551 58.1624Z" fill="#FFF0FA"/>
<path d="M772.234 58.1624C782.772 58.1623 791.314 49.6203 791.314 39.0833C791.314 28.5462 782.772 20.0042 772.234 20.0042C761.697 20.0042 753.155 28.5462 753.155 39.0833C753.155 49.6203 761.697 58.1624 772.234 58.1624Z" fill="#FFF0FA"/>
<path d="M810.393 58.1624C820.93 58.1623 829.472 49.6203 829.472 39.0833C829.472 28.5462 820.93 20.0042 810.393 20.0042C799.856 20.0042 791.314 28.5462 791.314 39.0833C791.314 49.6203 799.856 58.1624 810.393 58.1624Z" fill="#FFF0FA"/>
<path d="M734.076 57.1582C744.613 57.1582 753.155 48.6162 753.155 38.0791C753.155 27.542 744.613 19 734.076 19C723.539 19 714.997 27.542 714.997 38.0791C714.997 48.6162 723.539 57.1582 734.076 57.1582Z" fill="#FFF0FA"/>
<path d="M657.76 57.1582C668.297 57.1582 676.839 48.6162 676.839 38.0791C676.839 27.542 668.297 19 657.76 19C647.223 19 638.681 27.542 638.681 38.0791C638.681 48.6162 647.223 57.1582 657.76 57.1582Z" fill="#FFF0FA"/>
<path d="M695.918 57.1582C706.455 57.1582 714.997 48.6162 714.997 38.0791C714.997 27.542 706.455 19 695.918 19C685.381 19 676.839 27.542 676.839 38.0791C676.839 48.6162 685.381 57.1582 695.918 57.1582Z" fill="#FFF0FA"/>
<path d="M619.602 57.1582C630.139 57.1582 638.681 48.6162 638.681 38.0791C638.681 27.542 630.139 19 619.602 19C609.065 19 600.523 27.542 600.523 38.0791C600.523 48.6162 609.065 57.1582 619.602 57.1582Z" fill="#FFF0FA"/>
<path d="M543.285 57.1582C553.822 57.1582 562.364 48.6162 562.364 38.0791C562.364 27.542 553.822 19 543.285 19C532.748 19 524.206 27.542 524.206 38.0791C524.206 48.6162 532.748 57.1582 543.285 57.1582Z" fill="#FFF0FA"/>
<path d="M581.444 57.1582C591.981 57.1582 600.523 48.6162 600.523 38.0791C600.523 27.542 591.981 19 581.444 19C570.907 19 562.365 27.542 562.365 38.0791C562.365 48.6162 570.907 57.1582 581.444 57.1582Z" fill="#FFF0FA"/>
<path d="M505.127 58.1624C515.664 58.1623 524.206 49.6203 524.206 39.0833C524.206 28.5462 515.664 20.0042 505.127 20.0042C494.59 20.0042 486.048 28.5462 486.048 39.0833C486.048 49.6203 494.59 58.1624 505.127 58.1624Z" fill="#FFF0FA"/>
<path d="M428.811 58.1624C439.348 58.1623 447.89 49.6203 447.89 39.0833C447.89 28.5462 439.348 20.0042 428.811 20.0042C418.274 20.0042 409.732 28.5462 409.732 39.0833C409.732 49.6203 418.274 58.1624 428.811 58.1624Z" fill="#FFF0FA"/>
<path d="M466.969 58.1624C477.506 58.1623 486.048 49.6203 486.048 39.0833C486.048 28.5462 477.506 20.0042 466.969 20.0042C456.432 20.0042 447.89 28.5462 447.89 39.0833C447.89 49.6203 456.432 58.1624 466.969 58.1624Z" fill="#FFF0FA"/>
<path d="M390.653 58.1624C401.19 58.1623 409.732 49.6203 409.732 39.0833C409.732 28.5462 401.19 20.0042 390.653 20.0042C380.115 20.0042 371.573 28.5462 371.573 39.0833C371.573 49.6203 380.115 58.1624 390.653 58.1624Z" fill="#FFF0FA"/>
<path d="M314.336 58.1624C324.873 58.1623 333.415 49.6203 333.415 39.0833C333.415 28.5462 324.873 20.0042 314.336 20.0042C303.799 20.0042 295.257 28.5462 295.257 39.0833C295.257 49.6203 303.799 58.1624 314.336 58.1624Z" fill="#FFF0FA"/>
<path d="M352.494 58.1624C363.031 58.1623 371.573 49.6203 371.573 39.0833C371.573 28.5462 363.031 20.0042 352.494 20.0042C341.957 20.0042 333.415 28.5462 333.415 39.0833C333.415 49.6203 341.957 58.1624 352.494 58.1624Z" fill="#FFF0FA"/>
<path d="M276.178 57.1582C286.715 57.1582 295.257 48.6162 295.257 38.0791C295.257 27.542 286.715 19 276.178 19C265.641 19 257.099 27.542 257.099 38.0791C257.099 48.6162 265.641 57.1582 276.178 57.1582Z" fill="#FFF0FA"/>
<path d="M199.862 57.1582C210.399 57.1582 218.941 48.6162 218.941 38.0791C218.941 27.542 210.399 19 199.862 19C189.325 19 180.783 27.542 180.783 38.0791C180.783 48.6162 189.325 57.1582 199.862 57.1582Z" fill="#FFF0FA"/>
<path d="M238.02 57.1582C248.557 57.1582 257.099 48.6162 257.099 38.0791C257.099 27.542 248.557 19 238.02 19C227.483 19 218.941 27.542 218.941 38.0791C218.941 48.6162 227.483 57.1582 238.02 57.1582Z" fill="#FFF0FA"/>
<path d="M161.703 57.1582C172.241 57.1582 180.783 48.6162 180.783 38.0791C180.783 27.542 172.241 19 161.703 19C151.166 19 142.624 27.542 142.624 38.0791C142.624 48.6162 151.166 57.1582 161.703 57.1582Z" fill="#FFF0FA"/>
<path d="M85.3872 57.1582C95.9243 57.1582 104.466 48.6162 104.466 38.0791C104.466 27.542 95.9243 19 85.3872 19C74.8501 19 66.3081 27.542 66.3081 38.0791C66.3081 48.6162 74.8501 57.1582 85.3872 57.1582Z" fill="#FFF0FA"/>
<path d="M123.545 57.1582C134.082 57.1582 142.624 48.6162 142.624 38.0791C142.624 27.542 134.082 19 123.545 19C113.008 19 104.466 27.542 104.466 38.0791C104.466 48.6162 113.008 57.1582 123.545 57.1582Z" fill="#FFF0FA"/>
<path d="M11.0791 58.1621C21.6162 58.1621 30.1582 49.6201 30.1582 39.083C30.1582 28.5459 21.6162 20.0039 11.0791 20.0039C0.542013 20.0039 -7.99999 28.5459 -8 39.083C-8 49.6201 0.54201 58.1621 11.0791 58.1621Z" fill="#FFF0FA"/>
<path d="M49.2373 58.1624C59.7744 58.1623 68.3164 49.6203 68.3164 39.0833C68.3164 28.5462 59.7744 20.0042 49.2373 20.0042C38.7002 20.0042 30.1582 28.5462 30.1582 39.0833C30.1582 49.6203 38.7002 58.1624 49.2373 58.1624Z" fill="#FFF0FA"/>
<path d="M1419.92 58.1624C1430.46 58.1623 1439 49.6203 1439 39.0833C1439 28.5462 1430.46 20.0042 1419.92 20.0042C1409.38 20.0042 1400.84 28.5462 1400.84 39.0833C1400.84 49.6203 1409.38 58.1624 1419.92 58.1624Z" fill="#FFF0FA"/>
<path d="M1343.6 58.1624C1354.14 58.1623 1362.68 49.6203 1362.68 39.0833C1362.68 28.5462 1354.14 20.0042 1343.6 20.0042C1333.07 20.0042 1324.52 28.5462 1324.52 39.0833C1324.52 49.6203 1333.07 58.1624 1343.6 58.1624Z" fill="#FFF0FA"/>
<path d="M1381.76 58.1624C1392.3 58.1623 1400.84 49.6203 1400.84 39.0833C1400.84 28.5462 1392.3 20.0042 1381.76 20.0042C1371.22 20.0042 1362.68 28.5462 1362.68 39.0833C1362.68 49.6203 1371.22 58.1624 1381.76 58.1624Z" fill="#FFF0FA"/>
<path d="M1305.44 58.1624C1315.98 58.1623 1324.52 49.6203 1324.52 39.0833C1324.52 28.5462 1315.98 20.0042 1305.44 20.0042C1294.91 20.0042 1286.37 28.5462 1286.37 39.0833C1286.37 49.6203 1294.91 58.1624 1305.44 58.1624Z" fill="#FFF0FA"/>
<path d="M1229.13 58.1624C1239.67 58.1623 1248.21 49.6203 1248.21 39.0833C1248.21 28.5462 1239.67 20.0042 1229.13 20.0042C1218.59 20.0042 1210.05 28.5462 1210.05 39.0833C1210.05 49.6203 1218.59 58.1624 1229.13 58.1624Z" fill="#FFF0FA"/>
<path d="M1267.29 58.1624C1277.82 58.1623 1286.37 49.6203 1286.37 39.0833C1286.37 28.5462 1277.82 20.0042 1267.29 20.0042C1256.75 20.0042 1248.21 28.5462 1248.21 39.0833C1248.21 49.6203 1256.75 58.1624 1267.29 58.1624Z" fill="#FFF0FA"/>
<path d="M1190.97 57.1582C1201.51 57.1582 1210.05 48.6162 1210.05 38.0791C1210.05 27.542 1201.51 19 1190.97 19C1180.43 19 1171.89 27.542 1171.89 38.0791C1171.89 48.6162 1180.43 57.1582 1190.97 57.1582Z" fill="#FFF0FA"/>
<path d="M1114.65 57.1582C1125.19 57.1582 1133.73 48.6162 1133.73 38.0791C1133.73 27.542 1125.19 19 1114.65 19C1104.12 19 1095.57 27.542 1095.57 38.0791C1095.57 48.6162 1104.12 57.1582 1114.65 57.1582Z" fill="#FFF0FA"/>
<path d="M1152.81 57.1582C1163.35 57.1582 1171.89 48.6162 1171.89 38.0791C1171.89 27.542 1163.35 19 1152.81 19C1142.28 19 1133.73 27.542 1133.73 38.0791C1133.73 48.6162 1142.28 57.1582 1152.81 57.1582Z" fill="#FFF0FA"/>
<path d="M1076.5 57.1582C1087.03 57.1582 1095.57 48.6162 1095.57 38.0791C1095.57 27.542 1087.03 19 1076.5 19C1065.96 19 1057.42 27.542 1057.42 38.0791C1057.42 48.6162 1065.96 57.1582 1076.5 57.1582Z" fill="#FFF0FA"/>
<path d="M1000.18 57.1582C1010.72 57.1582 1019.26 48.6162 1019.26 38.0791C1019.26 27.542 1010.72 19 1000.18 19C989.642 19 981.1 27.542 981.1 38.0791C981.1 48.6162 989.642 57.1582 1000.18 57.1582Z" fill="#FFF0FA"/>
<path d="M1038.34 57.1582C1048.87 57.1582 1057.42 48.6162 1057.42 38.0791C1057.42 27.542 1048.87 19 1038.34 19C1027.8 19 1019.26 27.542 1019.26 38.0791C1019.26 48.6162 1027.8 57.1582 1038.34 57.1582Z" fill="#FFF0FA"/>
</mask>
<g mask="url(#mask0_170_168)">
<rect x="-7" width="1440" height="58" fill="#FFF0FA"/>
</g>
</svg>
