<svg width="223" height="482" viewBox="0 0 223 482" fill="none" xmlns="http://www.w3.org/2000/svg">
<g filter="url(#filter0_i_153_132)">
<rect y="30" width="223" height="452" rx="10" fill="#FFC2CF"/>
</g>
<rect x="79" y="17" width="63" height="26" rx="2" fill="white"/>
<path d="M114 0C119.523 2.57703e-07 124 4.47715 124 10V22H97V10C97 4.47715 101.477 0 107 0H114ZM110.5 6C108.015 6 106 8.01472 106 10.5C106 12.9853 108.015 15 110.5 15C112.985 15 115 12.9853 115 10.5C115 8.01472 112.985 6 110.5 6Z" fill="white"/>
<path d="M86.744 95.36L86.24 95.48L85.616 95.432L84.728 95.6L84.464 95.792L83.744 96.08L82.736 96.176L82.088 95.648L81.2 95.336L80.072 95.072L79.496 95.456H78.56L77.6 95.696L76.76 95.408L75.68 96.104L75.848 96.44L75.032 97.88L75.704 98.312L75.488 99.032L75.8 99.536L75.704 100.208V101.312L75.08 102.296L75.512 102.848L75.8 103.136L75.632 103.832L75.224 105.032L75.032 105.848L75.8 106.424L75.464 106.808L75.824 107.264L75.44 108.32L75.752 108.704L75.44 110.168L74.24 110.984L74.36 110.456L73.088 109.592L73.352 108.896L73.064 108.464L73.664 107.336L73.112 106.664L72.848 106.016L72.968 106.064L73.616 104.72L73.4 104.528L73.328 103.016L73.424 103.064L73.112 102.2L73.064 100.904L72.896 100.256L73.184 100.184L72.896 99.368L73.16 98.168L73.256 97.592L73.232 96.968L73.664 96.536L73.304 95.648L73.064 95.048L73.472 94.4L74.72 93.656L75.368 93.968L76.4 93.896L76.544 93.512L77.84 93.464L78.392 93.944L78.584 93.896L79.328 93.224L80.24 93.272L81.008 92.648L82.016 93.104L83.096 93.728L83.144 93.8L84.032 93.896L85.16 93.488L85.424 93.248L86.504 93.512L86.6 92.984L87.944 93.224L87.752 93.296H89.36L89.312 93.848L89.744 93.992L89.624 95.24L89.768 95.936L90.008 96.584L89.84 97.208L89.912 97.664L90.488 98.216L90.152 98.864L90.944 99.704L90.272 100.328L91.088 101.432L90.872 102.584L90.848 103.28L90.704 103.976L91.472 104.576L91.4 104.672L90.944 106.016L91.688 106.856L91.328 107.624L91.376 107.744L91.472 108.872L92.168 109.712L90.872 109.952L90.536 110.648L89.072 109.736V109.544L89.648 107.984L88.856 107.792L88.904 107.336L89.312 106.544L88.496 105.488L88.856 104.888L89.12 104.672L89.048 103.928L88.784 103.256L88.64 102.536L88.136 101.432L88.184 100.544L88.112 99.824L88.28 99.104L87.968 98.696L88.304 97.616L87.584 96.968L87.872 96.08L87.68 95.408L86.744 95.36ZM80.672 107.12L81.344 106.208L80.744 105.2L81.56 104.72L81.536 103.664L81.224 103.136L80.912 102.368L81.032 102.056L81.056 101.096L81.152 100.88L81.368 99.296L80.816 98.624L81.2 98.312L81.512 97.784L82.592 97.52L83.36 98.6L83.312 98.984L83.792 99.56L83.096 100.736L83.288 101.408L82.952 102.008L83.528 102.68L83.792 103.4L83.648 104.384L82.952 104.48L82.928 105.512L83.216 106.256L83.528 106.952L83.576 107.552L83.072 107.96L83.696 108.656L83.576 109.496L82.712 110.768L82.28 110.384L80.768 109.52L81.464 109.592L81.248 108.056L81.392 107.648L80.672 107.12ZM96.5141 93.8L98.0261 93.44L98.6981 93.008L99.3701 93.152H99.9701L100.57 93.272L101.698 93.416L102.274 93.464H103.018L103.498 92.6L104.026 92.576L104.914 92.432L105.97 92.936L106.426 93.008L106.762 92.768L107.434 92.624L108.514 92.648L109.69 92.6L110.41 93.248L109.57 93.944L109.498 94.616L107.65 94.328L107.362 94.376L106.474 94.352L105.562 94.76L104.602 95.24L104.554 95L103.354 94.928L102.682 95.336L101.698 94.928L101.434 94.856L100.738 95.48L100.09 95.048L98.6981 95.168L98.0501 95.504L97.8581 95.168L96.8981 95.24L96.0821 95.024L96.4901 94.52L96.5141 93.8ZM97.1621 108.728L97.5701 108.104L97.2581 107.216L97.3061 106.688L97.7381 105.896L97.1861 105.056L97.8101 103.88L97.6901 103.664L97.3061 103.328L97.8341 101.984L97.5221 101.864L97.3061 101.12L97.7621 100.256L97.4261 99.032L97.3061 98.744L97.9781 97.976L97.4021 97.016L98.7461 96.536L100.186 98.24L99.8501 98.384V99.68L99.4901 99.896L100.306 101.096L99.6101 101.648L99.5381 102.752L100.042 103.592L100.162 104.264L99.3701 104.528L99.6581 105.536L100.018 105.848L99.9221 107.336H99.5381L100.498 107.936L101.722 108.2L102.106 107.984L102.586 107.792L103.81 108.224L103.834 107.48L104.842 108.152L105.658 107.888L106.378 107.72L106.81 107.6L107.746 107.288H108.778L109.066 107.312L110.482 108.056L110.314 108.104L109.234 108.896L108.514 109.64L108.202 109.544L107.074 109.448L106.378 109.472L106.042 110.048L105.442 109.256L105.106 109.928H103.618L103.666 109.52L102.154 109.616L101.578 110.504L101.314 109.976L100.474 110.36L100.114 110.792L99.3701 110.24L98.3861 110.216L97.4981 109.784L97.6661 108.728H97.1621ZM101.002 101.456L101.362 101.048L101.602 99.992L102.634 99.536L103.018 99.416L104.17 99.56L104.29 99.608L105.058 99.536L105.826 100.04L106.306 99.824L106.834 99.44L108.082 100.568L107.674 100.808V101.792L106.882 101.336L105.706 101.72L105.25 101.696L104.794 101.936L104.05 101.72L102.778 102.368L102.658 101.672L101.794 102.248L101.002 101.456ZM124.28 95.168L123.584 95.792L122.864 95.192L121.952 95.72L120.872 95.528L120.464 96.152L120.248 96.224L119.312 95.6L118.784 95.36L119.168 93.848L120.368 94.328L120.536 94.232L121.16 93.488L122.288 93.368L123.152 93.968L123.104 93.344L124.424 93.296L125.072 93.488L125.48 92.912L126.392 93.44L127.112 93.488L127.352 93.968L127.016 94.664L126.872 95.96L126.968 96.488L127.928 97.568L127.328 98.192L127.424 98.672L128.312 99.704L127.664 100.496L127.64 100.784L128.528 101.144L128.744 102.656L128.168 102.608L128.648 104.12H128.216L129.008 104.912L128.432 105.68L128.72 106.28L129.128 106.88L128.816 108.488L128.864 108.584L129.392 109.904L129.176 110.48L127.496 110.288L127.28 110.048L126.656 109.472L126.464 108.776L126.56 108.128L126.224 106.952L126.152 105.992L126.872 105.608L126.344 104.528L126.248 104.432L126.464 103.616L126.536 102.464L125.648 102.536L125.48 101.216L125.768 101.168L126.128 99.704L125.456 99.8L125.096 98.456L125.768 98.264L124.928 97.328L125.264 96.512L124.808 95.768L124.28 95.168ZM114.752 94.76L115.448 94.568V93.92L116.072 92.624L116.432 93.104L117.344 93.344L117.248 94.088L117.104 94.64L117.632 95.768L117.848 96.752L117.992 97.424L117.536 97.52L117.44 98.432L117.608 99.32L117.248 99.968L117.704 100.424L117.2 101.36L117.416 102.416L117.776 102.32L118.088 103.712L117.68 104.048L118.064 104.552L117.704 105.92L117.92 106.712L117.536 106.736L118.064 107.864L118.04 108.248L117.728 109.28L117.776 109.376L117.608 110.192L116.84 110.24L115.52 109.904L115.736 109.568L115.304 108.776L115.184 108.08V107.312L115.544 106.376L115.64 105.224L115.952 104.624L115.112 104.24L115.664 103.328L115.376 102.752L114.992 101.936L115.208 101.504L115.088 100.544L115.424 100.112L115.016 99.032L115.784 98.792L115.184 97.808L115.088 97.568L115.52 96.44L115.616 96.152L114.752 94.76ZM147.746 92.504L148.058 92.576L149.234 93.416L149.066 94.304L148.658 95.264L148.802 95.72L148.634 96.08L148.49 97.448L149.066 97.544L148.274 99.032L148.658 99.152L148.418 100.4L148.706 100.688V101.552L148.034 101.696L148.586 103.28L148.778 103.928H147.842L148.154 104.672L148.466 105.776L147.866 106.424L148.25 107.216L148.082 107.72L148.466 108.512L148.154 109.4L147.962 110.312L147.29 110.792H146.714L145.754 109.52L145.706 108.656L145.442 108.824L145.466 107.24L145.826 107.264L145.706 105.872V105.08L145.586 104.888L145.658 103.784L146.426 103.568L146.474 102.992L146.666 101.648L146.402 101.216L146.282 100.616L146.57 99.584L146.45 99.656L146.762 98.552L146.138 97.808L146.522 97.472L146.21 96.656L146.954 95.744L146.282 94.472L146.522 94.4L146.234 93.2L147.746 92.504ZM134.522 95.24L135.146 94.448L134.954 93.248L135.674 93.056L135.89 93.296L136.514 93.848L136.61 93.872L136.778 94.616L137.066 95.528L137.546 96.728L137.594 96.632L137.138 98.096L137.426 98.576L137.33 99.464L137.618 100.064L137.162 100.64L137.666 101.048L137.21 102.44L137.594 102.368L137.498 103.304L137.618 104.312L138.074 104.888L138.002 105.584L138.218 106.616L137.786 106.904L138.386 107.24L138.938 108.056L139.994 108.512L140.522 108.248H140.858L142.01 107.432L142.802 108.104L143.426 107.192L144.098 107.576L144.41 108.512L144.794 108.536L143.618 109.256L143.69 109.616L142.178 110.216L142.274 110.336L141.002 109.928L140.858 109.688L139.778 110.36L138.602 109.832L138.122 110.024L137.258 110.504L136.61 110.936L135.698 110L135.89 109.016L135.914 108.08L135.41 107.936L135.578 107.408L136.034 105.968L135.626 105.392L135.866 105.008L135.938 103.808L135.386 104.024L135.41 102.416L135.746 101.936L135.722 101.288L135.002 100.952L134.93 99.776L134.978 99.224L135.098 98.888L134.762 98.336L134.69 97.16L134.93 96.848L135.194 95.816L134.522 95.24Z" fill="white"/>
<defs>
<filter id="filter0_i_153_132" x="0" y="30" width="226" height="458" filterUnits="userSpaceOnUse" color-interpolation-filters="sRGB">
<feFlood flood-opacity="0" result="BackgroundImageFix"/>
<feBlend mode="normal" in="SourceGraphic" in2="BackgroundImageFix" result="shape"/>
<feColorMatrix in="SourceAlpha" type="matrix" values="0 0 0 0 0 0 0 0 0 0 0 0 0 0 0 0 0 0 127 0" result="hardAlpha"/>
<feOffset dx="3" dy="6"/>
<feGaussianBlur stdDeviation="3.75"/>
<feComposite in2="hardAlpha" operator="arithmetic" k2="-1" k3="1"/>
<feColorMatrix type="matrix" values="0 0 0 0 1 0 0 0 0 1 0 0 0 0 1 0 0 0 0.25 0"/>
<feBlend mode="normal" in2="shape" result="effect1_innerShadow_153_132"/>
</filter>
</defs>
</svg>
