<svg width="15" height="16" viewBox="0 0 15 16" fill="none" xmlns="http://www.w3.org/2000/svg">
<path d="M15 11.5392C15 14.6747 11.4734 16 7.3913 16C3.3092 16 0 14.6747 0 11.5392C0 8.4036 3.3092 4.64514 7.3913 4.64514C11.4734 4.64514 15 8.4036 15 11.5392Z" fill="#FFF2F5"/>
<path d="M1.25968 1.12107C1.51762 0.697973 1.64555 0.495685 2.06518 0.395956C2.50234 0.292059 2.81167 0.420088 3.24717 0.706193C5.12324 1.93869 4.64351 7.45003 4.64351 7.45003L3.13329 7.80928C3.13329 7.80928 0.0919786 3.03651 1.25968 1.12107Z" fill="#FFF2F5"/>
<path d="M13.0142 1.12107C12.7563 0.697973 12.6284 0.495685 12.2087 0.395956C11.7716 0.292059 11.4623 0.420088 11.0268 0.706193C9.15069 1.93869 9.63042 7.45003 9.63042 7.45003L11.1406 7.80928C11.1406 7.80928 14.1819 3.03651 13.0142 1.12107Z" fill="#FFF2F5"/>
</svg>
