<svg width="31" height="34" viewBox="0 0 31 34" fill="none" xmlns="http://www.w3.org/2000/svg">
<path d="M31 24.5194C31 31.1825 23.7117 33.9987 15.2754 33.9987C6.83901 33.9987 0 31.1825 0 24.5194C0 17.8564 6.83901 9.86963 15.2754 9.86963C23.7117 9.86963 31 17.8564 31 24.5194Z" fill="#FFA8BB"/>
<path d="M2.60341 2.38094C3.13647 1.48185 3.40088 1.05198 4.2681 0.840061C5.17157 0.61928 5.81084 0.891341 6.71088 1.49931C10.5881 4.11837 9.59664 15.83 9.59664 15.83L6.47554 16.5934C6.47554 16.5934 0.190154 6.45124 2.60341 2.38094Z" fill="#FFA8BB"/>
<path d="M26.8962 2.38094C26.3631 1.48185 26.0987 1.05198 25.2315 0.840061C24.328 0.61928 23.6887 0.891341 22.7887 1.49931C18.9115 4.11837 19.9029 15.83 19.9029 15.83L23.024 16.5934C23.024 16.5934 29.3094 6.45124 26.8962 2.38094Z" fill="#FFA8BB"/>
</svg>
