<svg width="14" height="14" viewBox="0 0 14 14" fill="none" xmlns="http://www.w3.org/2000/svg">
<path fill-rule="evenodd" clip-rule="evenodd" d="M3.407 0.225C4.481 0.105 5.602 0 6.75 0C7.898 0 9.019 0.105 10.093 0.225C10.9093 0.3186 11.6697 0.686372 12.2499 1.26819C12.8301 1.85 13.1957 2.61143 13.287 3.428C13.402 4.497 13.5 5.61 13.5 6.75C13.5 7.89 13.402 9.003 13.287 10.072C13.1957 10.8886 12.8301 11.65 12.2499 12.2318C11.6697 12.8136 10.9093 13.1814 10.093 13.275C9.019 13.395 7.898 13.5 6.75 13.5C5.602 13.5 4.481 13.395 3.407 13.275C2.59069 13.1814 1.83029 12.8136 1.25011 12.2318C0.669933 11.65 0.304303 10.8886 0.213 10.072C0.098 9.003 0 7.89 0 6.75C0 5.61 0.098 4.497 0.213 3.428C0.304303 2.61143 0.669933 1.85 1.25011 1.26819C1.83029 0.686372 2.59069 0.3186 3.407 0.225ZM8.082 2.632C8.04748 2.48237 7.95908 2.35069 7.83367 2.26208C7.70826 2.17346 7.55461 2.13412 7.40205 2.15155C7.24948 2.16899 7.10867 2.24197 7.00648 2.35659C6.9043 2.47121 6.84788 2.61944 6.848 2.773V8.55C6.848 8.85696 6.75698 9.15702 6.58644 9.41224C6.4159 9.66747 6.17352 9.86639 5.88992 9.98386C5.60633 10.1013 5.29428 10.1321 4.99322 10.0722C4.69216 10.0123 4.41562 9.86448 4.19857 9.64743C3.98152 9.43038 3.83371 9.15384 3.77382 8.85278C3.71394 8.55172 3.74467 8.23967 3.86214 7.95608C3.97961 7.67248 4.17853 7.4301 4.43375 7.25956C4.68898 7.08902 4.98904 6.998 5.296 6.998C5.46176 6.998 5.62073 6.93215 5.73794 6.81494C5.85515 6.69773 5.921 6.53876 5.921 6.373C5.921 6.20724 5.85515 6.04827 5.73794 5.93106C5.62073 5.81385 5.46176 5.748 5.296 5.748C4.74182 5.748 4.20008 5.91233 3.73929 6.22022C3.27851 6.52811 2.91937 6.96572 2.70729 7.47772C2.49521 7.98972 2.43972 8.55311 2.54784 9.09664C2.65596 9.64018 2.92282 10.1394 3.31469 10.5313C3.70655 10.9232 4.20582 11.19 4.74936 11.2982C5.29289 11.4063 5.85628 11.3508 6.36828 11.1387C6.88028 10.9266 7.31789 10.5675 7.62578 10.1067C7.93367 9.64592 8.098 9.10418 8.098 8.55V5.06C8.698 5.57 9.472 5.85 10.38 5.85C10.5458 5.85 10.7047 5.78415 10.8219 5.66694C10.9392 5.54973 11.005 5.39076 11.005 5.225C11.005 5.05924 10.9392 4.90027 10.8219 4.78306C10.7047 4.66585 10.5458 4.6 10.38 4.6C9.72 4.6 9.23 4.396 8.869 4.075C8.501 3.747 8.228 3.259 8.082 2.632Z" fill="black"/>
</svg>
